<svg width="25" height="24" viewBox="0 0 25 24" fill="none" xmlns="http://www.w3.org/2000/svg">
    <path d="M12.875 15.5C11.9467 15.5 11.0565 15.1313 10.4001 14.4749C9.74376 13.8185 9.37501 12.9283 9.37501 12C9.37501 11.0717 9.74376 10.1815 10.4001 9.52513C11.0565 8.86875 11.9467 8.5 12.875 8.5C13.8033 8.5 14.6935 8.86875 15.3499 9.52513C16.0063 10.1815 16.375 11.0717 16.375 12C16.375 12.9283 16.0063 13.8185 15.3499 14.4749C14.6935 15.1313 13.8033 15.5 12.875 15.5ZM20.305 12.97C20.345 12.65 20.375 12.33 20.375 12C20.375 11.67 20.345 11.34 20.305 11L22.415 9.37C22.605 9.22 22.655 8.95 22.535 8.73L20.535 5.27C20.415 5.05 20.145 4.96 19.925 5.05L17.435 6.05C16.915 5.66 16.375 5.32 15.745 5.07L15.375 2.42C15.3547 2.30222 15.2933 2.19543 15.2018 2.11855C15.1103 2.04168 14.9945 1.99968 14.875 2H10.875C10.625 2 10.415 2.18 10.375 2.42L10.005 5.07C9.37501 5.32 8.83501 5.66 8.31501 6.05L5.82501 5.05C5.60501 4.96 5.33501 5.05 5.21501 5.27L3.21501 8.73C3.08501 8.95 3.14501 9.22 3.33501 9.37L5.44501 11C5.40501 11.34 5.37501 11.67 5.37501 12C5.37501 12.33 5.40501 12.65 5.44501 12.97L3.33501 14.63C3.14501 14.78 3.08501 15.05 3.21501 15.27L5.21501 18.73C5.33501 18.95 5.60501 19.03 5.82501 18.95L8.31501 17.94C8.83501 18.34 9.37501 18.68 10.005 18.93L10.375 21.58C10.415 21.82 10.625 22 10.875 22H14.875C15.125 22 15.335 21.82 15.375 21.58L15.745 18.93C16.375 18.67 16.915 18.34 17.435 17.94L19.925 18.95C20.145 19.03 20.415 18.95 20.535 18.73L22.535 15.27C22.655 15.05 22.605 14.78 22.415 14.63L20.305 12.97Z"
          fill="black"/>
</svg>
