<svg width="25" height="24" viewBox="0 0 25 24" fill="none" xmlns="http://www.w3.org/2000/svg">
    <path d="M18.625 13H17.945L15.945 15H17.855L19.625 17H5.625L7.405 15H9.455L7.455 13H6.625L3.625 16V20C3.625 20.5304 3.83571 21.0391 4.21079 21.4142C4.58586 21.7893 5.09457 22 5.625 22H19.625C20.1554 22 20.6641 21.7893 21.0392 21.4142C21.4143 21.0391 21.625 20.5304 21.625 20V16L18.625 13ZM17.625 7.95L12.675 12.9L9.125 9.36L14.085 4.41L17.625 7.95ZM13.385 2.29L7.015 8.66C6.9223 8.75251 6.84875 8.8624 6.79857 8.98338C6.74839 9.10435 6.72256 9.23403 6.72256 9.365C6.72256 9.49597 6.74839 9.62565 6.79857 9.74662C6.84875 9.8676 6.9223 9.97749 7.015 10.07L11.965 15C12.355 15.41 12.985 15.41 13.375 15L19.735 8.66C19.8277 8.56749 19.9013 8.4576 19.9514 8.33662C20.0016 8.21565 20.0274 8.08597 20.0274 7.955C20.0274 7.82403 20.0016 7.69435 19.9514 7.57338C19.9013 7.4524 19.8277 7.34251 19.735 7.25L14.785 2.3C14.6948 2.2056 14.5865 2.13029 14.4666 2.07853C14.3468 2.02677 14.2177 1.99961 14.0871 1.99868C13.9565 1.99775 13.8271 2.02306 13.7065 2.0731C13.5859 2.12314 13.4766 2.1969 13.385 2.29Z"
          fill="black"/>
</svg>
